<svg enable-background="new 0 0 36 36" height="512" viewBox="0 0 36 36" width="512" xmlns="http://www.w3.org/2000/svg"><g id="Layer_2"><g><path d="m13.411 34.797c6.298-2.859 12.105-1.559 15.14-2.936 3.035-1.378 8.617-6.016 2.28-19.978s-15.841-12.121-19.18-10.605c-15.632 7.094-9.395 38.581 1.76 33.519z" fill="#efefef"/></g></g><g id="color"><g><path d="m24.19 10.64c-1.08-2.3-3.45-3.89-6.19-3.89-3.45 0-6.3 2.51-6.77 5.8h-.08c-2.43 0-4.4 1.94-4.4 4.35s1.97 4.35 4.4 4.35h2.1 9.5 1.12c2.97 0 5.38-2.38 5.38-5.32 0-2.83-2.23-5.14-5.06-5.29z" fill="#f3f3f1"/></g><g><path d="m9 16.9c0-2.41 1.97-4.35 4.4-4.35h.08c.417-2.921 2.713-5.223 5.637-5.703-.365-.06-.736-.097-1.117-.097-3.45 0-6.3 2.51-6.77 5.8h-.08c-2.43 0-4.4 1.94-4.4 4.35s1.97 4.35 4.4 4.35h2.1.15c-2.43 0-4.4-1.94-4.4-4.35z" fill="#d5dbe1"/></g><g><path d="m13.25 16.25v12c0 .55.45 1 1 1h7.5c.55 0 1-.45 1-1v-12z" fill="#2fdf84"/></g><g><path d="m15.5 28.25v-12h-2.25v12c0 .55.45 1 1 1h2.25c-.55 0-1-.45-1-1z" fill="#00b871"/></g><g><g><path d="m31.125 29.625h2v1h-2z" fill="#a4afc1"/></g><g><path d="m25.375 29.625h2v1h-2z" fill="#a4afc1"/></g><g><path d="m28.875 26.125h1v2h-1z" fill="#a4afc1"/></g><g><path d="m28.875 31.875h1v2h-1z" fill="#a4afc1"/></g></g><g><path d="m6 7.5c-.827 0-1.5-.673-1.5-1.5s.673-1.5 1.5-1.5 1.5.673 1.5 1.5-.673 1.5-1.5 1.5zm0-2c-.276 0-.5.224-.5.5s.224.5.5.5.5-.224.5-.5-.224-.5-.5-.5z" fill="#a4afc1"/></g><g><circle cx="17.99" cy="22.021" fill="#f3f3f1" r="1.26"/></g></g><g id="line"><g><path d="m23.87 22h-1.12v-1.5h1.12c2.553 0 4.63-2.05 4.63-4.57 0-2.417-1.911-4.412-4.35-4.541-.276-.015-.522-.18-.639-.43-.986-2.101-3.15-3.459-5.511-3.459-3.016 0-5.607 2.217-6.027 5.156-.053.37-.37.644-.743.644-2.092 0-3.73 1.615-3.73 3.6s1.638 3.6 3.65 3.6h2.1v1.5h-2.1c-2.84 0-5.15-2.288-5.15-5.1 0-2.629 2.019-4.8 4.603-5.071.777-3.364 3.852-5.829 7.397-5.829 2.792 0 5.363 1.529 6.671 3.93 3.022.377 5.329 2.933 5.329 6 0 3.347-2.75 6.07-6.13 6.07z"/></g><g><path d="m21.75 30h-7.5c-.965 0-1.75-.785-1.75-1.75v-12h1.5v12c0 .136.114.25.25.25h7.5c.136 0 .25-.114.25-.25v-12h1.5v12c0 .965-.785 1.75-1.75 1.75z"/></g><g><path d="m18 24c-1.103 0-2-.897-2-2s.897-2 2-2 2 .897 2 2-.897 2-2 2zm0-2.5c-.276 0-.5.225-.5.5s.224.5.5.5.5-.225.5-.5-.224-.5-.5-.5z"/></g><g><path d="m17.25 26h1.5v1.25h-1.5z"/></g><g><path d="m11.75 15.5h12.5v1.5h-12.5z"/></g></g></svg>