<svg enable-background="new 0 0 36 36" height="512" viewBox="0 0 36 36" width="512" xmlns="http://www.w3.org/2000/svg"><g id="Layer_2"><g><path d="m26.982 3.711c-6.916.13-11.732-3.364-15.065-3.302s-10.296 2.11-10.009 17.44 9.744 17.404 13.41 17.336c17.164-.321 23.911-31.703 11.664-31.474z" fill="#efefef"/></g></g><g id="color"><g><g><path d="m30.875 29.5h2v1h-2z" fill="#a4afc1"/></g><g><path d="m25.125 29.5h2v1h-2z" fill="#a4afc1"/></g><g><path d="m28.625 26h1v2h-1z" fill="#a4afc1"/></g><g><path d="m28.625 31.75h1v2h-1z" fill="#a4afc1"/></g></g><g><path d="m30.944 7.771c-.827 0-1.5-.673-1.5-1.5s.673-1.5 1.5-1.5 1.5.673 1.5 1.5-.673 1.5-1.5 1.5zm0-2c-.275 0-.5.224-.5.5s.225.5.5.5.5-.224.5-.5-.224-.5-.5-.5z" fill="#a4afc1"/></g><g><circle cx="15.5" cy="15.46" fill="#2fdf84" r="7.75"/></g><g><path d="m10 15.46c0-3.897 2.879-7.113 6.625-7.659-.368-.054-.742-.091-1.125-.091-4.28 0-7.75 3.47-7.75 7.75s3.47 7.75 7.75 7.75c.383 0 .757-.037 1.125-.091-3.746-.546-6.625-3.762-6.625-7.659z" fill="#00b871"/></g></g><g id="line"><g><path d="m7.148 29.885-.797-1.27 10.75-6.75c.293-.186.681-.143.929.104l3.47 3.47 7.22-7.22 1.061 1.061-7.75 7.75c-.281.281-.779.281-1.061 0l-3.577-3.577z"/></g><g><path d="m30 22.75h-1.5v-3.251h-3.25v-1.499h4c.414 0 .75.336.75.75z"/></g><g><path d="m12.265 23.364c-3.199-1.316-5.265-4.403-5.265-7.864 0-4.687 3.813-8.5 8.5-8.5s8.5 3.813 8.5 8.5c0 2.611-1.171 5.038-3.214 6.658l-.932-1.176c1.682-1.333 2.646-3.332 2.646-5.482 0-3.86-3.141-7-7-7s-7 3.14-7 7c0 2.851 1.702 5.393 4.335 6.477z"/></g><g><g><path d="m15.88 19h-2.13v-1.5h2.13c.342 0 .62-.278.62-.62 0-.352-.278-.63-.62-.63h-.76c-1.169 0-2.12-.951-2.12-2.12 0-1.179.951-2.13 2.12-2.13h2.13v1.5h-2.13c-.342 0-.62.278-.62.62 0 .352.278.63.62.63h.76c1.169 0 2.12.951 2.12 2.12 0 1.179-.951 2.13-2.12 2.13z"/></g><g><path d="m14.75 11.25h1.5v1.5h-1.5z"/></g><g><path d="m14.75 18.25h1.5v1.5h-1.5z"/></g></g></g></svg>