<svg enable-background="new 0 0 36 36" height="512" viewBox="0 0 36 36" width="512" xmlns="http://www.w3.org/2000/svg"><g id="Layer_2"><g><path d="m27.417 3.914c-6.915.129-11.732-3.365-15.064-3.302s-10.296 2.109-10.009 17.44 9.744 17.404 13.41 17.336c17.163-.321 23.911-31.703 11.663-31.474z" fill="#efefef"/></g></g><g id="color"><g><path d="m7.87 23.131 15.498 4.153c.8.214 1.623-.26 1.837-1.061l2.421-9.035c.214-.8-.26-1.623-1.061-1.837l-15.499-4.153c-.8-.214-1.623.26-1.837 1.061l-2.421 9.035c-.213.8.261 1.623 1.062 1.837z" fill="#2fdf84"/></g><g><path d="m10.12 23.631c-.8-.214-1.275-1.037-1.061-1.837l2.421-9.035c.167-.621.7-1.042 1.305-1.1l-1.718-.46c-.8-.214-1.623.26-1.837 1.061l-2.421 9.035c-.214.8.26 1.623 1.061 1.837l15.499 4.153c.179.048.358.057.532.04z" fill="#00b871"/></g><g><path d="m12.25 20.75h15.5c.828 0 1.5-.672 1.5-1.5v-9c0-.828-.672-1.5-1.5-1.5h-15.5c-.828 0-1.5.672-1.5 1.5v9c0 .828.672 1.5 1.5 1.5z" fill="#f3f3f1"/></g><g><path d="m12.25 20.75h15.5c.828 0 1.5-.672 1.5-1.5v-9c0-.828-.672-1.5-1.5-1.5h-15.5c-.828 0-1.5.672-1.5 1.5v9c0 .828.672 1.5 1.5 1.5z" fill="#2fdf84"/></g><g><path d="m13 19.25v-9c0-.828.672-1.5 1.5-1.5h-2.25c-.828 0-1.5.672-1.5 1.5v9c0 .828.672 1.5 1.5 1.5h2.25c-.828 0-1.5-.672-1.5-1.5z" fill="#00b871"/></g><g><circle cx="20" cy="14.75" fill="#f3f3f1" r="2.25"/></g><g><g><path d="m7.875 29.5h2v1h-2z" fill="#a4afc1"/></g><g><path d="m2.125 29.5h2v1h-2z" fill="#a4afc1"/></g><g><path d="m5.625 26h1v2h-1z" fill="#a4afc1"/></g><g><path d="m5.625 31.75h1v2h-1z" fill="#a4afc1"/></g></g><g><path d="m29 6.333c-.827 0-1.5-.673-1.5-1.5s.673-1.5 1.5-1.5 1.5.673 1.5 1.5-.673 1.5-1.5 1.5zm0-2c-.276 0-.5.224-.5.5s.224.5.5.5.5-.224.5-.5-.224-.5-.5-.5z" fill="#a4afc1"/></g></g><g id="line"><g><path d="m27.75 21.5h-15.5c-1.241 0-2.25-1.009-2.25-2.25v-9c0-1.241 1.009-2.25 2.25-2.25h15.5c1.241 0 2.25 1.009 2.25 2.25v9c0 1.241-1.009 2.25-2.25 2.25zm-15.5-12c-.414 0-.75.336-.75.75v9c0 .414.336.75.75.75h15.5c.414 0 .75-.336.75-.75v-9c0-.414-.336-.75-.75-.75z"/></g><g><path d="m23.703 28c-.189 0-.382-.024-.574-.074l-15.463-4.141c-1.193-.329-1.904-1.563-1.592-2.755l1.739-6.483 1.449.389-1.738 6.479c-.104.397.135.812.535.922l15.455 4.139c.191.051.394.023.567-.076.171-.099.293-.259.343-.45l.579-2.145 1.448.391-.578 2.14c-.261.999-1.173 1.664-2.17 1.664z"/></g><g><path d="m20 17.75c-1.654 0-3-1.346-3-3s1.346-3 3-3 3 1.346 3 3-1.346 3-3 3zm0-4.5c-.827 0-1.5.673-1.5 1.5s.673 1.5 1.5 1.5 1.5-.673 1.5-1.5-.673-1.5-1.5-1.5z"/></g><g><path d="m13.75 11h1.5v1.5h-1.5z"/></g><g><path d="m24.75 17h1.5v1.5h-1.5z"/></g></g></svg>