<svg enable-background="new 0 0 36 36" height="512" viewBox="0 0 36 36" width="512" xmlns="http://www.w3.org/2000/svg"><g id="Layer_2"><g><path d="m34.904 20.152c-3.782-5.791-3.38-11.727-5.203-14.518s-7.256-7.603-20.093.782-9.572 17.5-7.566 20.569c9.388 14.373 39.561 3.423 32.862-6.833z" fill="#efefef"/></g></g><g id="color"><g><g><path d="m31.188 7.625h2v1h-2z" fill="#a4afc1"/></g><g><path d="m25.438 7.625h2v1h-2z" fill="#a4afc1"/></g><g><path d="m28.938 4.125h1v2h-1z" fill="#a4afc1"/></g><g><path d="m28.938 9.875h1v2h-1z" fill="#a4afc1"/></g></g><g><path d="m6 6.75c-.827 0-1.5-.673-1.5-1.5s.673-1.5 1.5-1.5 1.5.673 1.5 1.5-.673 1.5-1.5 1.5zm0-2c-.275 0-.5.224-.5.5s.225.5.5.5.5-.224.5-.5-.224-.5-.5-.5z" fill="#a4afc1"/></g><g><circle cx="15.688" cy="15.46" fill="#2fdf84" r="7.75"/></g><g><path d="m10.188 15.46c0-3.897 2.879-7.113 6.625-7.659-.368-.054-.742-.091-1.125-.091-4.28 0-7.75 3.47-7.75 7.75s3.47 7.75 7.75 7.75c.383 0 .757-.037 1.125-.091-3.746-.546-6.625-3.762-6.625-7.659z" fill="#00b871"/></g></g><g id="line"><g><path d="m23.088 19.337-1.34-.673c.499-.995.752-2.06.752-3.165 0-3.86-3.141-7-7-7s-7 3.14-7 7c0 .29.018.58.053.864l-1.488.185c-.043-.344-.065-.696-.065-1.048 0-4.687 3.814-8.5 8.5-8.5s8.5 3.813 8.5 8.5c0 1.341-.306 2.632-.912 3.837z"/></g><g><g><path d="m15.88 19h-2.13v-1.5h2.13c.342 0 .62-.278.62-.62 0-.352-.278-.63-.62-.63h-.76c-1.169 0-2.12-.951-2.12-2.12 0-1.179.951-2.13 2.12-2.13h2.13v1.5h-2.13c-.342 0-.62.278-.62.62 0 .352.278.63.62.63h.76c1.169 0 2.12.951 2.12 2.12 0 1.179-.951 2.13-2.12 2.13z"/></g><g><path d="m14.75 11.25h1.5v1.5h-1.5z"/></g><g><path d="m14.75 18.25h1.5v1.5h-1.5z"/></g></g><g><path d="m28.72 29.781-7.22-7.22-3.47 3.47c-.247.247-.636.29-.929.104l-10.75-6.75.797-1.271 10.244 6.433 3.577-3.577c.293-.293.768-.293 1.061 0l7.75 7.75z"/></g><g><path d="m29.25 30h-4v-1.5h3.25v-3.25h1.5v4c0 .414-.336.75-.75.75z"/></g></g></svg>